<svg width="123" height="41" viewBox="0 0 123 41" fill="none" xmlns="http://www.w3.org/2000/svg">
<path d="M112.576 0.00013325H9.746C9.37118 0.00013325 9.00085 0.00013325 8.62701 0.00218324C8.31407 0.00423324 8.00363 0.0101885 7.68769 0.0152007C7.00132 0.0233 6.31657 0.0838511 5.63938 0.196328C4.96314 0.311253 4.30808 0.52792 3.69637 0.839001C3.0854 1.15271 2.52714 1.56035 2.04184 2.04712C1.554 2.53253 1.14734 3.09359 0.83751 3.70873C0.526823 4.32266 0.311392 4.98053 0.198658 5.65963C0.0848508 6.33788 0.0236103 7.02394 0.0154858 7.71168C0.0060001 8.02594 0.00499838 8.34125 0 8.65555V32.3476C0.00499838 32.6659 0.0060001 32.9742 0.0154858 33.2925C0.0236128 33.9802 0.0848533 34.6663 0.198658 35.3445C0.311081 36.024 0.526525 36.6822 0.83751 37.2964C1.1472 37.9095 1.55391 38.4683 2.04184 38.951C2.5253 39.44 3.08392 39.8479 3.69637 40.1592C4.30808 40.4711 4.96306 40.6891 5.63938 40.8058C6.31668 40.9173 7.00137 40.9779 7.68769 40.987C8.00363 40.994 8.31407 40.998 8.62701 40.998C9.00084 41 9.3712 41 9.746 41H112.576C112.943 41 113.316 41 113.684 40.998C113.995 40.998 114.315 40.994 114.626 40.987C115.311 40.9784 115.995 40.9178 116.67 40.8058C117.349 40.6882 118.006 40.4703 118.621 40.1592C119.233 39.8477 119.791 39.4398 120.274 38.951C120.761 38.4664 121.168 37.9081 121.482 37.2964C121.79 36.6818 122.004 36.0236 122.115 35.3445C122.229 34.6662 122.292 33.9803 122.304 33.2925C122.308 32.9742 122.308 32.6659 122.308 32.3476C122.316 31.9752 122.316 31.6049 122.316 31.2264V9.77463C122.316 9.39927 122.316 9.02691 122.308 8.65555C122.308 8.34125 122.308 8.02594 122.304 7.71163C122.292 7.02384 122.229 6.33793 122.115 5.65959C122.003 4.98088 121.79 4.32306 121.482 3.70869C120.851 2.4757 119.85 1.47205 118.621 0.838908C118.006 0.528588 117.349 0.311979 116.67 0.196236C115.995 0.0832633 115.311 0.0226911 114.626 0.0150572C114.315 0.0100552 113.995 0.00404874 113.684 0.00204999C113.316 0 112.943 0 112.576 0V0.00013325Z" fill="#0051BA"/>
<path d="M8.63222 40.1031C8.32078 40.1031 8.01687 40.0991 7.70788 40.0921C7.06779 40.0838 6.42919 40.0279 5.79732 39.9249C5.20813 39.8232 4.63737 39.6339 4.10386 39.3634C3.57524 39.095 3.09309 38.7432 2.6759 38.3213C2.25266 37.9044 1.9003 37.4209 1.63277 36.8899C1.36229 36.3555 1.17511 35.7826 1.07773 35.1913C0.972577 34.5559 0.915684 33.9135 0.907543 33.2694C0.901062 33.0533 0.892578 32.3335 0.892578 32.3335V8.65552C0.892578 8.65552 0.901614 7.94683 0.907594 7.73862C0.915389 7.09562 0.971951 6.45415 1.07679 5.81976C1.17435 5.22681 1.36168 4.6523 1.6323 4.11611C1.89884 3.58548 2.24925 3.1016 2.66994 2.68321C3.09015 2.26086 3.57384 1.90721 4.10336 1.63519C4.63564 1.36549 5.20533 1.17755 5.79332 1.07765C6.42726 0.973679 7.06808 0.917469 7.7104 0.909488L8.63272 0.896973H113.679L114.612 0.90999C115.249 0.917574 115.884 0.973284 116.512 1.07664C117.106 1.1778 117.681 1.36705 118.22 1.63819C119.281 2.1864 120.144 3.05373 120.688 4.11861C120.955 4.6511 121.139 5.22093 121.235 5.80875C121.342 6.44835 121.401 7.09486 121.413 7.74313C121.416 8.03341 121.416 8.34521 121.416 8.65552C121.424 9.03989 121.424 9.40575 121.424 9.7746V31.2264C121.424 31.5988 121.424 31.9622 121.416 32.3285C121.416 32.6618 121.416 32.9672 121.412 33.2814C121.4 33.9181 121.342 34.5531 121.237 35.1813C121.142 35.7769 120.956 36.3542 120.685 36.893C120.416 37.4182 120.066 37.8976 119.647 38.3133C119.23 38.7375 118.747 39.0914 118.217 39.3614C117.68 39.6341 117.105 39.824 116.512 39.9249C115.88 40.0284 115.241 40.0843 114.601 40.0921C114.302 40.0991 113.988 40.1031 113.684 40.1031L112.576 40.1051L8.63222 40.1031Z" fill="white"/>
<path d="M25.551 20.3855C25.5624 19.4958 25.7981 18.6235 26.236 17.8497C26.674 17.0759 27.3 16.4258 28.0559 15.9598C27.5757 15.2722 26.9422 14.7062 26.2058 14.307C25.4694 13.9078 24.6502 13.6862 23.8135 13.66C22.0285 13.4721 20.2981 14.731 19.3885 14.731C18.4614 14.731 17.0609 13.6786 15.5529 13.7097C14.5775 13.7414 13.6268 14.0258 12.7936 14.5353C11.9604 15.0449 11.273 15.7622 10.7984 16.6174C8.74276 20.1864 10.2761 25.4317 12.2453 28.3167C13.2306 29.7293 14.382 31.3073 15.8887 31.2514C17.3631 31.1901 17.9137 30.3086 19.6934 30.3086C21.4566 30.3086 21.9732 31.2514 23.5104 31.2158C25.0925 31.1901 26.0893 29.7969 27.04 28.3708C27.7479 27.3642 28.2926 26.2517 28.654 25.0745C27.7348 24.6847 26.9504 24.0322 26.3986 23.1983C25.8468 22.3645 25.552 21.3862 25.551 20.3855Z" fill="#0051BA"/>
<path d="M22.6482 11.7629C23.5108 10.7245 23.9358 9.38977 23.8328 8.04224C22.515 8.18104 21.2976 8.81264 20.4234 9.8112C19.9959 10.299 19.6685 10.8665 19.4599 11.4813C19.2513 12.0961 19.1656 12.7461 19.2077 13.3941C19.8668 13.4009 20.519 13.2576 21.1149 12.9751C21.7109 12.6925 22.2351 12.278 22.6482 11.7629Z" fill="#0051BA"/>
<path d="M43.239 27.8178H38.4007L37.2388 31.2582H35.1895L39.7722 18.5298H41.9014L46.4842 31.2582H44.3999L43.239 27.8178ZM38.9018 26.2303H42.7369L40.8463 20.6469H40.7934L38.9018 26.2303Z" fill="#0051BA"/>
<path d="M56.3814 26.616C56.3814 29.4998 54.8422 31.3526 52.5194 31.3526C51.931 31.3835 51.3458 31.2476 50.8308 30.9604C50.3158 30.6733 49.8919 30.2465 49.6076 29.729H49.5636V34.3255H47.6641V21.9755H49.5028V23.519H49.5377C49.8351 23.004 50.2662 22.5794 50.7851 22.2906C51.3039 22.0017 51.8912 21.8592 52.4844 21.8784C54.8332 21.8784 56.3814 23.7402 56.3814 26.616ZM54.4289 26.616C54.4289 24.7372 53.4607 23.502 51.9833 23.502C50.5319 23.502 49.5557 24.7632 49.5557 26.616C49.5557 28.4859 50.5319 29.7381 51.9833 29.7381C53.4607 29.7381 54.4289 28.5119 54.4289 26.616H54.4289Z" fill="#0051BA"/>
<path d="M66.5675 26.616C66.5675 29.4998 65.0277 31.3526 62.7049 31.3526C62.1165 31.3835 61.5313 31.2476 61.0164 30.9604C60.5014 30.6733 60.0775 30.2465 59.7931 29.729H59.7492V34.3255H57.8496V21.9755H59.6883V23.519H59.7232C60.0206 23.004 60.4517 22.5794 60.9706 22.2906C61.4895 22.0017 62.0768 21.8592 62.6699 21.8784C65.0188 21.8784 66.5675 23.7402 66.5675 26.616ZM64.6145 26.616C64.6145 24.7372 63.6462 23.502 62.1689 23.502C60.7175 23.502 59.7412 24.7632 59.7412 26.616C59.7412 28.4859 60.7175 29.7381 62.1689 29.7381C63.6462 29.7381 64.6145 28.5119 64.6145 26.616Z" fill="#0051BA"/>
<path d="M73.2981 27.7101C73.4388 28.9723 74.6616 29.8011 76.3326 29.8011C77.9337 29.8011 79.0857 28.9723 79.0857 27.8342C79.0857 26.8462 78.3909 26.2547 76.7459 25.8493L75.1008 25.4519C72.77 24.8873 71.688 23.7942 71.688 22.0205C71.688 19.8244 73.5965 18.3159 76.3057 18.3159C78.9889 18.3159 80.8276 19.8244 80.8894 22.0205H78.9719C78.8571 20.7503 77.81 19.9835 76.2797 19.9835C74.7495 19.9835 73.7023 20.7593 73.7023 21.8884C73.7023 22.7883 74.3711 23.3178 76.0072 23.7231L77.4057 24.0675C80.01 24.6851 81.0911 25.7341 81.0911 27.5959C81.0911 29.9772 79.2004 31.4687 76.1918 31.4687C73.3769 31.4687 71.4763 30.0123 71.3535 27.71L73.2981 27.7101Z" fill="#0051BA"/>
<path d="M85.1936 19.7805V21.9767H86.9534V23.4851H85.1936V28.6011C85.1936 29.3959 85.546 29.7662 86.3196 29.7662C86.5285 29.7626 86.7371 29.7479 86.9445 29.7222V31.2216C86.5966 31.2868 86.2431 31.3163 85.8893 31.3097C84.0157 31.3097 83.285 30.604 83.285 28.8043V23.4851H81.9395V21.9767H83.285V19.7805H85.1936Z" fill="#0051BA"/>
<path d="M87.9707 26.6169C87.9707 23.6971 89.6856 21.8623 92.3598 21.8623C95.043 21.8623 96.7499 23.697 96.7499 26.6169C96.7499 29.5448 95.052 31.3715 92.3598 31.3715C89.6686 31.3715 87.9707 29.5448 87.9707 26.6169ZM94.8144 26.6169C94.8144 24.614 93.8991 23.4318 92.3598 23.4318C90.8206 23.4318 89.9052 24.623 89.9052 26.6169C89.9052 28.6279 90.8206 29.801 92.3598 29.801C93.8991 29.801 94.8144 28.6279 94.8144 26.6169H94.8144Z" fill="#0051BA"/>
<path d="M98.3164 21.9754H100.128V23.5549H100.172C100.295 23.0616 100.583 22.6257 100.988 22.3203C101.394 22.015 101.891 21.8589 102.398 21.8783C102.617 21.8776 102.835 21.9014 103.049 21.9494V23.7311C102.773 23.6464 102.484 23.6076 102.195 23.616C101.919 23.6048 101.644 23.6536 101.389 23.759C101.134 23.8645 100.904 24.0241 100.716 24.227C100.528 24.4298 100.386 24.671 100.3 24.9341C100.213 25.1972 100.185 25.4759 100.216 25.7511V31.2554H98.3164L98.3164 21.9754Z" fill="#0051BA"/>
<path d="M111.807 28.5308C111.552 30.2154 109.915 31.3715 107.822 31.3715C105.13 31.3715 103.459 29.5628 103.459 26.661C103.459 23.7501 105.139 21.8623 107.742 21.8623C110.303 21.8623 111.913 23.626 111.913 26.4398V27.0924H105.377V27.2075C105.346 27.549 105.389 27.8931 105.502 28.2168C105.614 28.5406 105.794 28.8366 106.03 29.0852C106.265 29.3338 106.551 29.5293 106.867 29.6588C107.184 29.7882 107.525 29.8487 107.866 29.836C108.315 29.8782 108.766 29.774 109.151 29.5388C109.536 29.3036 109.835 28.9501 110.003 28.5308L111.807 28.5308ZM105.386 25.7611H110.012C110.029 25.454 109.983 25.1467 109.876 24.8585C109.769 24.5702 109.604 24.3073 109.391 24.0861C109.177 23.865 108.921 23.6904 108.637 23.5733C108.354 23.4562 108.049 23.3992 107.742 23.4058C107.433 23.404 107.126 23.4636 106.84 23.5812C106.554 23.6988 106.294 23.8721 106.075 24.091C105.856 24.31 105.682 24.5703 105.564 24.857C105.445 25.1436 105.385 25.4509 105.386 25.7611V25.7611Z" fill="#0051BA"/>
<path d="M41.1328 12.3867V13H36.8281V12.3867H41.1328ZM36.9492 12.3867V14.3984H36.2031L36.1992 12.3867H36.9492ZM41.7891 12.3867L41.7812 14.3945H41.0352V12.3867H41.7891ZM40.3945 7.3125V7.92969H37.9023V7.3125H40.3945ZM41.043 7.3125V13H40.293V7.3125H41.043ZM37.6445 7.3125H38.3984L38.2812 9.60156C38.2656 9.94531 38.2331 10.263 38.1836 10.5547C38.1341 10.8438 38.0729 11.1081 38 11.3477C37.9271 11.5872 37.8438 11.8021 37.75 11.9922C37.6562 12.1797 37.556 12.3424 37.4492 12.4805C37.3424 12.6159 37.2305 12.7279 37.1133 12.8164C36.9987 12.9023 36.8828 12.9635 36.7656 13H36.4219V12.3867H36.6641C36.7318 12.3138 36.8086 12.2083 36.8945 12.0703C36.9831 11.9323 37.0703 11.7539 37.1562 11.5352C37.2448 11.3138 37.3216 11.0443 37.3867 10.7266C37.4544 10.4089 37.5 10.0339 37.5234 9.60156L37.6445 7.3125ZM46.9609 9.97656V10.3359C46.9609 10.763 46.9076 11.1458 46.8008 11.4844C46.694 11.8229 46.5404 12.1107 46.3398 12.3477C46.1393 12.5846 45.8984 12.7656 45.6172 12.8906C45.3385 13.0156 45.026 13.0781 44.6797 13.0781C44.3438 13.0781 44.0352 13.0156 43.7539 12.8906C43.4753 12.7656 43.2331 12.5846 43.0273 12.3477C42.8242 12.1107 42.6667 11.8229 42.5547 11.4844C42.4427 11.1458 42.3867 10.763 42.3867 10.3359V9.97656C42.3867 9.54948 42.4414 9.16797 42.5508 8.83203C42.6628 8.49349 42.8203 8.20573 43.0234 7.96875C43.2266 7.72917 43.4674 7.54688 43.7461 7.42188C44.0273 7.29688 44.3359 7.23438 44.6719 7.23438C45.0182 7.23438 45.3307 7.29688 45.6094 7.42188C45.8906 7.54688 46.1315 7.72917 46.332 7.96875C46.5352 8.20573 46.6901 8.49349 46.7969 8.83203C46.9062 9.16797 46.9609 9.54948 46.9609 9.97656ZM46.2148 10.3359V9.96875C46.2148 9.63021 46.1797 9.33073 46.1094 9.07031C46.0417 8.8099 45.9414 8.59115 45.8086 8.41406C45.6758 8.23698 45.513 8.10286 45.3203 8.01172C45.1302 7.92057 44.9141 7.875 44.6719 7.875C44.4375 7.875 44.2253 7.92057 44.0352 8.01172C43.8477 8.10286 43.6862 8.23698 43.5508 8.41406C43.418 8.59115 43.3151 8.8099 43.2422 9.07031C43.1693 9.33073 43.1328 9.63021 43.1328 9.96875V10.3359C43.1328 10.6771 43.1693 10.9792 43.2422 11.2422C43.3151 11.5026 43.4193 11.7227 43.5547 11.9023C43.6927 12.0794 43.8555 12.2135 44.043 12.3047C44.2331 12.3958 44.4453 12.4414 44.6797 12.4414C44.9245 12.4414 45.1419 12.3958 45.332 12.3047C45.5221 12.2135 45.6823 12.0794 45.8125 11.9023C45.9453 11.7227 46.0456 11.5026 46.1133 11.2422C46.181 10.9792 46.2148 10.6771 46.2148 10.3359ZM51.5234 11.1914H52.2734C52.2344 11.5508 52.1315 11.8724 51.9648 12.1562C51.7982 12.4401 51.5625 12.6654 51.2578 12.832C50.9531 12.9961 50.5729 13.0781 50.1172 13.0781C49.7839 13.0781 49.4805 13.0156 49.207 12.8906C48.9362 12.7656 48.7031 12.5885 48.5078 12.3594C48.3125 12.1276 48.1615 11.8503 48.0547 11.5273C47.9505 11.2018 47.8984 10.8398 47.8984 10.4414V9.875C47.8984 9.47656 47.9505 9.11589 48.0547 8.79297C48.1615 8.46745 48.3138 8.1888 48.5117 7.95703C48.7122 7.72526 48.9531 7.54688 49.2344 7.42188C49.5156 7.29688 49.832 7.23438 50.1836 7.23438C50.6133 7.23438 50.9766 7.3151 51.2734 7.47656C51.5703 7.63802 51.8008 7.86198 51.9648 8.14844C52.1315 8.43229 52.2344 8.76172 52.2734 9.13672H51.5234C51.487 8.87109 51.4193 8.64323 51.3203 8.45312C51.2214 8.26042 51.0807 8.11198 50.8984 8.00781C50.7161 7.90365 50.4779 7.85156 50.1836 7.85156C49.931 7.85156 49.7083 7.89974 49.5156 7.99609C49.3255 8.09245 49.1654 8.22917 49.0352 8.40625C48.9076 8.58333 48.8112 8.79557 48.7461 9.04297C48.681 9.29036 48.6484 9.5651 48.6484 9.86719V10.4414C48.6484 10.7201 48.6771 10.9818 48.7344 11.2266C48.7943 11.4714 48.8841 11.6862 49.0039 11.8711C49.1237 12.056 49.276 12.2018 49.4609 12.3086C49.6458 12.4128 49.8646 12.4648 50.1172 12.4648C50.4375 12.4648 50.6927 12.4141 50.8828 12.3125C51.0729 12.2109 51.2161 12.0651 51.3125 11.875C51.4115 11.6849 51.4818 11.457 51.5234 11.1914ZM55.2852 7.3125V13H54.543V7.3125H55.2852ZM57.1133 7.3125V7.92969H52.7188V7.3125H57.1133ZM59.7188 11.1133L61.2227 7.3125H62.0898L60.0781 12.0508C60.0208 12.1836 59.957 12.3125 59.8867 12.4375C59.8164 12.5599 59.7305 12.6693 59.6289 12.7656C59.5273 12.862 59.401 12.9388 59.25 12.9961C59.1016 13.0534 58.9167 13.082 58.6953 13.082C58.6328 13.082 58.5586 13.0781 58.4727 13.0703C58.3867 13.0651 58.3307 13.0586 58.3047 13.0508L58.3281 12.4492C58.3568 12.4544 58.4128 12.4596 58.4961 12.4648C58.5794 12.4674 58.6406 12.4688 58.6797 12.4688C58.8281 12.4688 58.9453 12.4388 59.0312 12.3789C59.1172 12.319 59.1862 12.2435 59.2383 12.1523C59.293 12.0586 59.3424 11.9635 59.3867 11.8672L59.7188 11.1133ZM58.4414 7.3125L60.0234 10.8555L60.2109 11.5547L59.5781 11.6016L57.5977 7.3125H58.4414ZM67.332 7.3125V13H66.582V7.92969H63.7773V13H63.0234V7.3125H67.332ZM72.4141 9.75781V10.3711H69.3359V9.75781H72.4141ZM69.4531 7.3125V13H68.6992V7.3125H69.4531ZM73.0703 7.3125V13H72.3203V7.3125H73.0703ZM78.7891 9.97656V10.3359C78.7891 10.763 78.7357 11.1458 78.6289 11.4844C78.5221 11.8229 78.3685 12.1107 78.168 12.3477C77.9674 12.5846 77.7266 12.7656 77.4453 12.8906C77.1667 13.0156 76.8542 13.0781 76.5078 13.0781C76.1719 13.0781 75.8633 13.0156 75.582 12.8906C75.3034 12.7656 75.0612 12.5846 74.8555 12.3477C74.6523 12.1107 74.4948 11.8229 74.3828 11.4844C74.2708 11.1458 74.2148 10.763 74.2148 10.3359V9.97656C74.2148 9.54948 74.2695 9.16797 74.3789 8.83203C74.4909 8.49349 74.6484 8.20573 74.8516 7.96875C75.0547 7.72917 75.2956 7.54688 75.5742 7.42188C75.8555 7.29688 76.1641 7.23438 76.5 7.23438C76.8464 7.23438 77.1589 7.29688 77.4375 7.42188C77.7188 7.54688 77.9596 7.72917 78.1602 7.96875C78.3633 8.20573 78.5182 8.49349 78.625 8.83203C78.7344 9.16797 78.7891 9.54948 78.7891 9.97656ZM78.043 10.3359V9.96875C78.043 9.63021 78.0078 9.33073 77.9375 9.07031C77.8698 8.8099 77.7695 8.59115 77.6367 8.41406C77.5039 8.23698 77.3411 8.10286 77.1484 8.01172C76.9583 7.92057 76.7422 7.875 76.5 7.875C76.2656 7.875 76.0534 7.92057 75.8633 8.01172C75.6758 8.10286 75.5143 8.23698 75.3789 8.41406C75.2461 8.59115 75.1432 8.8099 75.0703 9.07031C74.9974 9.33073 74.9609 9.63021 74.9609 9.96875V10.3359C74.9609 10.6771 74.9974 10.9792 75.0703 11.2422C75.1432 11.5026 75.2474 11.7227 75.3828 11.9023C75.5208 12.0794 75.6836 12.2135 75.8711 12.3047C76.0612 12.3958 76.2734 12.4414 76.5078 12.4414C76.7526 12.4414 76.9701 12.3958 77.1602 12.3047C77.3503 12.2135 77.5104 12.0794 77.6406 11.9023C77.7734 11.7227 77.8737 11.5026 77.9414 11.2422C78.0091 10.9792 78.043 10.6771 78.043 10.3359ZM83.9297 10.3398H82.4883L82.4805 9.73438H83.7891C84.0052 9.73438 84.194 9.69792 84.3555 9.625C84.5169 9.55208 84.6419 9.44792 84.7305 9.3125C84.8216 9.17448 84.8672 9.01042 84.8672 8.82031C84.8672 8.61198 84.8268 8.44271 84.7461 8.3125C84.668 8.17969 84.5469 8.08333 84.3828 8.02344C84.2214 7.96094 84.0156 7.92969 83.7656 7.92969H82.6562V13H81.9023V7.3125H83.7656C84.0573 7.3125 84.3177 7.34245 84.5469 7.40234C84.776 7.45964 84.9701 7.55078 85.1289 7.67578C85.2904 7.79818 85.4128 7.95443 85.4961 8.14453C85.5794 8.33464 85.6211 8.5625 85.6211 8.82812C85.6211 9.0625 85.5612 9.27474 85.4414 9.46484C85.3216 9.65234 85.1549 9.80599 84.9414 9.92578C84.7305 10.0456 84.4831 10.1224 84.1992 10.1562L83.9297 10.3398ZM83.8945 13H82.1914L82.6172 12.3867H83.8945C84.1341 12.3867 84.3372 12.3451 84.5039 12.2617C84.6732 12.1784 84.8021 12.0612 84.8906 11.9102C84.9792 11.7565 85.0234 11.5755 85.0234 11.3672C85.0234 11.1562 84.9857 10.974 84.9102 10.8203C84.8346 10.6667 84.7161 10.5482 84.5547 10.4648C84.3932 10.3815 84.1849 10.3398 83.9297 10.3398H82.8555L82.8633 9.73438H84.332L84.4922 9.95312C84.7656 9.97656 84.9974 10.0547 85.1875 10.1875C85.3776 10.3177 85.5221 10.4844 85.6211 10.6875C85.7227 10.8906 85.7734 11.1146 85.7734 11.3594C85.7734 11.7135 85.6953 12.013 85.5391 12.2578C85.3854 12.5 85.168 12.6849 84.8867 12.8125C84.6055 12.9375 84.2747 13 83.8945 13Z" fill="#0051BA"/>
</svg>
