<svg width="122" height="41" viewBox="0 0 122 41" fill="none" xmlns="http://www.w3.org/2000/svg">
<path d="M111.807 0.00013234H9.67949C9.30722 0.00013234 8.93942 0.00013234 8.56813 0.00216834C8.25733 0.00420435 7.94901 0.0101189 7.63523 0.015097C6.95354 0.023141 6.27346 0.0832789 5.60089 0.194988C4.92927 0.309129 4.27868 0.524317 3.67114 0.833275C3.06434 1.14485 2.50989 1.5497 2.02791 2.03315C1.54339 2.51524 1.13951 3.07248 0.831794 3.68342C0.523228 4.29315 0.309267 4.94654 0.197302 5.62101C0.0842717 6.29462 0.0234492 6.97601 0.0153801 7.65905C0.00595915 7.97116 0.00496427 8.28432 0 8.59648V32.1268C0.00496427 32.4429 0.00595915 32.7491 0.0153801 33.0653C0.0234517 33.7483 0.0842742 34.4297 0.197302 35.1033C0.308958 35.7781 0.522931 36.4319 0.831794 37.0418C1.13937 37.6508 1.54331 38.2058 2.02791 38.6852C2.50807 39.1708 3.06287 39.5759 3.67114 39.8851C4.27868 40.1949 4.92919 40.4114 5.60089 40.5273C6.27357 40.6381 6.95359 40.6982 7.63523 40.7073C7.94901 40.7142 8.25733 40.7182 8.56813 40.7182C8.93941 40.7202 9.30724 40.7202 9.67949 40.7202H111.807C112.172 40.7202 112.543 40.7202 112.908 40.7182C113.217 40.7182 113.534 40.7142 113.844 40.7073C114.524 40.6987 115.203 40.6386 115.874 40.5273C116.548 40.4106 117.201 40.1941 117.811 39.8851C118.419 39.5758 118.973 39.1706 119.453 38.6852C119.936 38.2039 120.341 37.6493 120.653 37.0418C120.959 36.4314 121.171 35.7777 121.281 35.1033C121.394 34.4296 121.457 33.7484 121.47 33.0653C121.474 32.7491 121.474 32.4429 121.474 32.1268C121.481 31.757 121.481 31.3892 121.481 31.0133V9.70792C121.481 9.33512 121.481 8.9653 121.474 8.59648C121.474 8.28432 121.474 7.97116 121.47 7.659C121.457 6.97591 121.394 6.29467 121.281 5.62097C121.171 4.94689 120.959 4.29356 120.653 3.68338C120.026 2.45881 119.032 1.46201 117.811 0.833183C117.201 0.524981 116.548 0.309849 115.874 0.194896C115.203 0.0826951 114.524 0.0225363 113.844 0.0149544C113.534 0.00998659 113.217 0.00402111 112.908 0.002036C112.543 0 112.172 0 111.807 0V0.00013234Z" fill="#0051BA"/>
<path d="M8.57366 39.8297C8.26435 39.8297 7.96252 39.8257 7.65563 39.8188C7.01991 39.8105 6.38566 39.755 5.75811 39.6527C5.17294 39.5517 4.60608 39.3637 4.07621 39.095C3.55119 38.8285 3.07234 38.479 2.65799 38.0601C2.23764 37.646 1.88768 37.1658 1.62198 36.6384C1.35335 36.1076 1.16744 35.5387 1.07073 34.9514C0.966294 34.3204 0.909789 33.6823 0.901703 33.0426C0.895267 32.8279 0.886841 32.1131 0.886841 32.1131V8.59671C0.886841 8.59671 0.895815 7.89285 0.901754 7.68607C0.909496 7.04746 0.965672 6.41036 1.0698 5.7803C1.16669 5.1914 1.35274 4.62081 1.62151 4.08828C1.88624 3.56127 2.23425 3.08069 2.65207 2.66516C3.06942 2.24569 3.5498 1.89446 4.07571 1.62429C4.60436 1.35644 5.17016 1.16977 5.75414 1.07056C6.38375 0.967297 7.0202 0.911469 7.65813 0.903543L8.57416 0.891113H112.904L113.83 0.904042C114.463 0.911574 115.093 0.966903 115.717 1.06956C116.307 1.17002 116.879 1.35798 117.413 1.62727C118.467 2.17174 119.324 3.03315 119.865 4.09076C120.13 4.61962 120.313 5.18556 120.408 5.76936C120.514 6.4046 120.573 7.0467 120.585 7.69055C120.588 7.97885 120.588 8.28852 120.588 8.59671C120.596 8.97846 120.596 9.34182 120.596 9.70815V31.0136C120.596 31.3834 120.596 31.7443 120.588 32.1081C120.588 32.4392 120.588 32.7424 120.584 33.0546C120.572 33.6869 120.514 34.3176 120.41 34.9414C120.316 35.5329 120.131 36.1063 119.862 36.6415C119.595 37.1631 119.247 37.6392 118.831 38.0521C118.416 38.4734 117.937 38.8248 117.41 39.093C116.877 39.3638 116.306 39.5525 115.717 39.6527C115.09 39.7555 114.455 39.811 113.82 39.8188C113.522 39.8257 113.211 39.8297 112.908 39.8297L111.808 39.8317L8.57366 39.8297Z" fill="white"/>
<path d="M45.1328 12.3867V13H40.8281V12.3867H45.1328ZM40.9492 12.3867V14.3984H40.2031L40.1992 12.3867H40.9492ZM45.7891 12.3867L45.7812 14.3945H45.0352V12.3867H45.7891ZM44.3945 7.3125V7.92969H41.9023V7.3125H44.3945ZM45.043 7.3125V13H44.293V7.3125H45.043ZM41.6445 7.3125H42.3984L42.2812 9.60156C42.2656 9.94531 42.2331 10.263 42.1836 10.5547C42.1341 10.8438 42.0729 11.1081 42 11.3477C41.9271 11.5872 41.8438 11.8021 41.75 11.9922C41.6562 12.1797 41.556 12.3424 41.4492 12.4805C41.3424 12.6159 41.2305 12.7279 41.1133 12.8164C40.9987 12.9023 40.8828 12.9635 40.7656 13H40.4219V12.3867H40.6641C40.7318 12.3138 40.8086 12.2083 40.8945 12.0703C40.9831 11.9323 41.0703 11.7539 41.1562 11.5352C41.2448 11.3138 41.3216 11.0443 41.3867 10.7266C41.4544 10.4089 41.5 10.0339 41.5234 9.60156L41.6445 7.3125ZM50.9609 9.97656V10.3359C50.9609 10.763 50.9076 11.1458 50.8008 11.4844C50.694 11.8229 50.5404 12.1107 50.3398 12.3477C50.1393 12.5846 49.8984 12.7656 49.6172 12.8906C49.3385 13.0156 49.026 13.0781 48.6797 13.0781C48.3438 13.0781 48.0352 13.0156 47.7539 12.8906C47.4753 12.7656 47.2331 12.5846 47.0273 12.3477C46.8242 12.1107 46.6667 11.8229 46.5547 11.4844C46.4427 11.1458 46.3867 10.763 46.3867 10.3359V9.97656C46.3867 9.54948 46.4414 9.16797 46.5508 8.83203C46.6628 8.49349 46.8203 8.20573 47.0234 7.96875C47.2266 7.72917 47.4674 7.54688 47.7461 7.42188C48.0273 7.29688 48.3359 7.23438 48.6719 7.23438C49.0182 7.23438 49.3307 7.29688 49.6094 7.42188C49.8906 7.54688 50.1315 7.72917 50.332 7.96875C50.5352 8.20573 50.6901 8.49349 50.7969 8.83203C50.9062 9.16797 50.9609 9.54948 50.9609 9.97656ZM50.2148 10.3359V9.96875C50.2148 9.63021 50.1797 9.33073 50.1094 9.07031C50.0417 8.8099 49.9414 8.59115 49.8086 8.41406C49.6758 8.23698 49.513 8.10286 49.3203 8.01172C49.1302 7.92057 48.9141 7.875 48.6719 7.875C48.4375 7.875 48.2253 7.92057 48.0352 8.01172C47.8477 8.10286 47.6862 8.23698 47.5508 8.41406C47.418 8.59115 47.3151 8.8099 47.2422 9.07031C47.1693 9.33073 47.1328 9.63021 47.1328 9.96875V10.3359C47.1328 10.6771 47.1693 10.9792 47.2422 11.2422C47.3151 11.5026 47.4193 11.7227 47.5547 11.9023C47.6927 12.0794 47.8555 12.2135 48.043 12.3047C48.2331 12.3958 48.4453 12.4414 48.6797 12.4414C48.9245 12.4414 49.1419 12.3958 49.332 12.3047C49.5221 12.2135 49.6823 12.0794 49.8125 11.9023C49.9453 11.7227 50.0456 11.5026 50.1133 11.2422C50.181 10.9792 50.2148 10.6771 50.2148 10.3359ZM55.5234 11.1914H56.2734C56.2344 11.5508 56.1315 11.8724 55.9648 12.1562C55.7982 12.4401 55.5625 12.6654 55.2578 12.832C54.9531 12.9961 54.5729 13.0781 54.1172 13.0781C53.7839 13.0781 53.4805 13.0156 53.207 12.8906C52.9362 12.7656 52.7031 12.5885 52.5078 12.3594C52.3125 12.1276 52.1615 11.8503 52.0547 11.5273C51.9505 11.2018 51.8984 10.8398 51.8984 10.4414V9.875C51.8984 9.47656 51.9505 9.11589 52.0547 8.79297C52.1615 8.46745 52.3138 8.1888 52.5117 7.95703C52.7122 7.72526 52.9531 7.54688 53.2344 7.42188C53.5156 7.29688 53.832 7.23438 54.1836 7.23438C54.6133 7.23438 54.9766 7.3151 55.2734 7.47656C55.5703 7.63802 55.8008 7.86198 55.9648 8.14844C56.1315 8.43229 56.2344 8.76172 56.2734 9.13672H55.5234C55.487 8.87109 55.4193 8.64323 55.3203 8.45312C55.2214 8.26042 55.0807 8.11198 54.8984 8.00781C54.7161 7.90365 54.4779 7.85156 54.1836 7.85156C53.931 7.85156 53.7083 7.89974 53.5156 7.99609C53.3255 8.09245 53.1654 8.22917 53.0352 8.40625C52.9076 8.58333 52.8112 8.79557 52.7461 9.04297C52.681 9.29036 52.6484 9.5651 52.6484 9.86719V10.4414C52.6484 10.7201 52.6771 10.9818 52.7344 11.2266C52.7943 11.4714 52.8841 11.6862 53.0039 11.8711C53.1237 12.056 53.276 12.2018 53.4609 12.3086C53.6458 12.4128 53.8646 12.4648 54.1172 12.4648C54.4375 12.4648 54.6927 12.4141 54.8828 12.3125C55.0729 12.2109 55.2161 12.0651 55.3125 11.875C55.4115 11.6849 55.4818 11.457 55.5234 11.1914ZM59.2852 7.3125V13H58.543V7.3125H59.2852ZM61.1133 7.3125V7.92969H56.7188V7.3125H61.1133ZM63.7188 11.1133L65.2227 7.3125H66.0898L64.0781 12.0508C64.0208 12.1836 63.957 12.3125 63.8867 12.4375C63.8164 12.5599 63.7305 12.6693 63.6289 12.7656C63.5273 12.862 63.401 12.9388 63.25 12.9961C63.1016 13.0534 62.9167 13.082 62.6953 13.082C62.6328 13.082 62.5586 13.0781 62.4727 13.0703C62.3867 13.0651 62.3307 13.0586 62.3047 13.0508L62.3281 12.4492C62.3568 12.4544 62.4128 12.4596 62.4961 12.4648C62.5794 12.4674 62.6406 12.4688 62.6797 12.4688C62.8281 12.4688 62.9453 12.4388 63.0312 12.3789C63.1172 12.319 63.1862 12.2435 63.2383 12.1523C63.293 12.0586 63.3424 11.9635 63.3867 11.8672L63.7188 11.1133ZM62.4414 7.3125L64.0234 10.8555L64.2109 11.5547L63.5781 11.6016L61.5977 7.3125H62.4414ZM71.332 7.3125V13H70.582V7.92969H67.7773V13H67.0234V7.3125H71.332ZM76.4141 9.75781V10.3711H73.3359V9.75781H76.4141ZM73.4531 7.3125V13H72.6992V7.3125H73.4531ZM77.0703 7.3125V13H76.3203V7.3125H77.0703ZM82.7891 9.97656V10.3359C82.7891 10.763 82.7357 11.1458 82.6289 11.4844C82.5221 11.8229 82.3685 12.1107 82.168 12.3477C81.9674 12.5846 81.7266 12.7656 81.4453 12.8906C81.1667 13.0156 80.8542 13.0781 80.5078 13.0781C80.1719 13.0781 79.8633 13.0156 79.582 12.8906C79.3034 12.7656 79.0612 12.5846 78.8555 12.3477C78.6523 12.1107 78.4948 11.8229 78.3828 11.4844C78.2708 11.1458 78.2148 10.763 78.2148 10.3359V9.97656C78.2148 9.54948 78.2695 9.16797 78.3789 8.83203C78.4909 8.49349 78.6484 8.20573 78.8516 7.96875C79.0547 7.72917 79.2956 7.54688 79.5742 7.42188C79.8555 7.29688 80.1641 7.23438 80.5 7.23438C80.8464 7.23438 81.1589 7.29688 81.4375 7.42188C81.7188 7.54688 81.9596 7.72917 82.1602 7.96875C82.3633 8.20573 82.5182 8.49349 82.625 8.83203C82.7344 9.16797 82.7891 9.54948 82.7891 9.97656ZM82.043 10.3359V9.96875C82.043 9.63021 82.0078 9.33073 81.9375 9.07031C81.8698 8.8099 81.7695 8.59115 81.6367 8.41406C81.5039 8.23698 81.3411 8.10286 81.1484 8.01172C80.9583 7.92057 80.7422 7.875 80.5 7.875C80.2656 7.875 80.0534 7.92057 79.8633 8.01172C79.6758 8.10286 79.5143 8.23698 79.3789 8.41406C79.2461 8.59115 79.1432 8.8099 79.0703 9.07031C78.9974 9.33073 78.9609 9.63021 78.9609 9.96875V10.3359C78.9609 10.6771 78.9974 10.9792 79.0703 11.2422C79.1432 11.5026 79.2474 11.7227 79.3828 11.9023C79.5208 12.0794 79.6836 12.2135 79.8711 12.3047C80.0612 12.3958 80.2734 12.4414 80.5078 12.4414C80.7526 12.4414 80.9701 12.3958 81.1602 12.3047C81.3503 12.2135 81.5104 12.0794 81.6406 11.9023C81.7734 11.7227 81.8737 11.5026 81.9414 11.2422C82.0091 10.9792 82.043 10.6771 82.043 10.3359ZM87.9297 10.3398H86.4883L86.4805 9.73438H87.7891C88.0052 9.73438 88.194 9.69792 88.3555 9.625C88.5169 9.55208 88.6419 9.44792 88.7305 9.3125C88.8216 9.17448 88.8672 9.01042 88.8672 8.82031C88.8672 8.61198 88.8268 8.44271 88.7461 8.3125C88.668 8.17969 88.5469 8.08333 88.3828 8.02344C88.2214 7.96094 88.0156 7.92969 87.7656 7.92969H86.6562V13H85.9023V7.3125H87.7656C88.0573 7.3125 88.3177 7.34245 88.5469 7.40234C88.776 7.45964 88.9701 7.55078 89.1289 7.67578C89.2904 7.79818 89.4128 7.95443 89.4961 8.14453C89.5794 8.33464 89.6211 8.5625 89.6211 8.82812C89.6211 9.0625 89.5612 9.27474 89.4414 9.46484C89.3216 9.65234 89.1549 9.80599 88.9414 9.92578C88.7305 10.0456 88.4831 10.1224 88.1992 10.1562L87.9297 10.3398ZM87.8945 13H86.1914L86.6172 12.3867H87.8945C88.1341 12.3867 88.3372 12.3451 88.5039 12.2617C88.6732 12.1784 88.8021 12.0612 88.8906 11.9102C88.9792 11.7565 89.0234 11.5755 89.0234 11.3672C89.0234 11.1562 88.9857 10.974 88.9102 10.8203C88.8346 10.6667 88.7161 10.5482 88.5547 10.4648C88.3932 10.3815 88.1849 10.3398 87.9297 10.3398H86.8555L86.8633 9.73438H88.332L88.4922 9.95312C88.7656 9.97656 88.9974 10.0547 89.1875 10.1875C89.3776 10.3177 89.5221 10.4844 89.6211 10.6875C89.7227 10.8906 89.7734 11.1146 89.7734 11.3594C89.7734 11.7135 89.6953 12.013 89.5391 12.2578C89.3854 12.5 89.168 12.6849 88.8867 12.8125C88.6055 12.9375 88.2747 13 87.8945 13Z" fill="#0051BA"/>
<path d="M63.635 21.2319C61.5941 21.2319 59.9785 22.7499 59.9785 24.8581C59.9785 26.8821 61.5941 28.4844 63.635 28.4844C65.6758 28.4844 67.2914 26.9664 67.2914 24.8581C67.2914 22.6655 65.6758 21.2319 63.635 21.2319ZM63.635 26.9664C62.5295 26.9664 61.5941 26.0388 61.5941 24.7738C61.5941 23.5088 62.5295 22.5812 63.635 22.5812C64.7404 22.5812 65.6758 23.4245 65.6758 24.7738C65.6758 26.0388 64.7404 26.9664 63.635 26.9664ZM55.7268 21.2319C53.686 21.2319 52.0703 22.7499 52.0703 24.8581C52.0703 26.8821 53.686 28.4844 55.7268 28.4844C57.7676 28.4844 59.3833 26.9664 59.3833 24.8581C59.3833 22.6655 57.7676 21.2319 55.7268 21.2319ZM55.7268 26.9664C54.6214 26.9664 53.686 26.0388 53.686 24.7738C53.686 23.5088 54.6214 22.5812 55.7268 22.5812C56.8322 22.5812 57.7676 23.4245 57.7676 24.7738C57.7676 26.0388 56.8322 26.9664 55.7268 26.9664ZM46.288 22.3282V23.8462H49.9445C49.8595 24.6895 49.5193 25.3641 49.0941 25.7858C48.5839 26.2918 47.7336 26.8821 46.288 26.8821C43.9921 26.8821 42.2914 25.1111 42.2914 22.8342C42.2914 20.5572 44.0771 18.7863 46.288 18.7863C47.4785 18.7863 48.4139 19.2923 49.0941 19.8826L50.1996 18.7863C49.2642 17.943 48.0737 17.2683 46.3731 17.2683C43.3118 17.2683 40.6758 19.7983 40.6758 22.8342C40.6758 25.8701 43.3118 28.4001 46.3731 28.4001C48.0737 28.4001 49.2642 27.8941 50.2846 26.7978C51.305 25.7858 51.6452 24.3522 51.6452 23.2558C51.6452 22.9185 51.6452 22.5812 51.5601 22.3282H46.288ZM84.8935 23.5088C84.5533 22.6655 83.703 21.2319 81.8322 21.2319C79.9615 21.2319 78.4309 22.6655 78.4309 24.8581C78.4309 26.8821 79.9615 28.4844 82.0023 28.4844C83.6179 28.4844 84.6384 27.4724 84.9785 26.8821L83.788 26.0388C83.3628 26.6291 82.8526 27.0508 82.0023 27.0508C81.152 27.0508 80.6418 26.7134 80.2166 25.9545L85.0635 23.9305L84.8935 23.5088ZM79.9615 24.6895C79.9615 23.3402 81.0669 22.5812 81.8322 22.5812C82.4275 22.5812 83.0227 22.9185 83.1928 23.3402L79.9615 24.6895ZM75.9649 28.1471H77.5805V17.6056H75.9649V28.1471ZM73.4139 21.9909C72.9887 21.5692 72.3084 21.1476 71.4581 21.1476C69.6724 21.1476 67.9717 22.7499 67.9717 24.7738C67.9717 26.7978 69.5873 28.3157 71.4581 28.3157C72.3084 28.3157 72.9887 27.8941 73.3288 27.4724H73.4139V27.9784C73.4139 29.3277 72.6486 30.0867 71.4581 30.0867C70.5227 30.0867 69.8424 29.412 69.6724 28.8217L68.3118 29.412C68.737 30.3397 69.7574 31.5203 71.5431 31.5203C73.4139 31.5203 74.9445 30.424 74.9445 27.8097V21.4006H73.4139V21.9909ZM71.5431 26.9664C70.4377 26.9664 69.5023 26.0388 69.5023 24.7738C69.5023 23.5088 70.4377 22.5812 71.5431 22.5812C72.6486 22.5812 73.4989 23.5088 73.4989 24.7738C73.4989 26.0388 72.6486 26.9664 71.5431 26.9664ZM92.2914 17.6056H88.4649V28.1471H90.0805V24.1835H92.2914C94.0771 24.1835 95.7778 22.9185 95.7778 20.8946C95.7778 18.8706 94.0771 17.6056 92.2914 17.6056ZM92.3764 22.6655H90.0805V19.0393H92.3764C93.5669 19.0393 94.2472 20.0512 94.2472 20.8102C94.1622 21.7379 93.4819 22.6655 92.3764 22.6655ZM102.155 21.1476C100.965 21.1476 99.7744 21.6535 99.3492 22.7499L100.795 23.3402C101.135 22.7499 101.645 22.5812 102.24 22.5812C103.091 22.5812 103.856 23.0872 103.941 23.9305V24.0148C103.686 23.8462 103.006 23.5932 102.325 23.5932C100.795 23.5932 99.2642 24.4365 99.2642 25.9545C99.2642 27.3881 100.54 28.3157 101.9 28.3157C103.006 28.3157 103.516 27.8097 103.941 27.3038H104.026V28.1471H105.557V24.0992C105.387 22.2439 103.941 21.1476 102.155 21.1476ZM101.985 26.9664C101.475 26.9664 100.71 26.7134 100.71 26.0388C100.71 25.1955 101.645 24.9425 102.41 24.9425C103.091 24.9425 103.431 25.1111 103.856 25.2798C103.686 26.2918 102.836 26.9664 101.985 26.9664ZM110.914 21.4006L109.128 25.9545H109.043L107.172 21.4006H105.472L108.278 27.8097L106.662 31.3517H108.278L112.615 21.4006H110.914ZM96.6281 28.1471H98.2438V17.6056H96.6281V28.1471Z" fill="#0051BA"/>
<g clip-path="url(#clip0_369_395)">
<path d="M32.2506 19.0594L27.5144 16.3264L23.6191 20.0918L27.1792 23.5331L32.2505 20.606C32.5299 20.4448 32.6969 20.1556 32.6969 19.8329C32.6969 19.5102 32.53 19.2209 32.2506 19.0594Z" fill="#0051BA"/>
<path d="M26.7105 15.8622L21.4986 12.8534L10.0762 7L22.9773 19.4713L26.7105 15.8622Z" fill="#0051BA"/>
<path d="M10.2676 33L21.5199 26.8016L26.3771 23.9977L22.9791 20.7126L10.2676 33Z" fill="#0051BA"/>
<path d="M9.31482 7.50488L9.30273 32.6908L22.336 20.0918L9.31482 7.50488Z" fill="#0051BA"/>
</g>
<defs>
<clipPath id="clip0_369_395">
<rect width="26" height="26" fill="white" transform="translate(8 7)"/>
</clipPath>
</defs>
</svg>
